<?xml version="1.0" encoding="UTF-8"?>
<svg xmlns="http://www.w3.org/2000/svg" width="256" height="256" viewBox="0 0 1024 1024">
  <title>Castle Icon (White on Grey Circle, Centered)</title>

  <!-- 円形のグレー背景 -->
  <circle cx="512" cy="512" r="448" fill="#374151"/>

  <!-- 城シルエット（白）を上に101px移動して中央寄せ -->
  <g fill="#FFFFFF" transform="translate(0,-101)">
    <!-- 台座 -->
    <path d="M240 740 L784 740 L744 830 L280 830 Z"/>
    <rect x="300" y="700" width="424" height="28" rx="6"/>

    <!-- 下段屋根 -->
    <path d="M260 660 C340 630, 684 630, 764 660 L730 690 C650 668, 374 668, 294 690 Z"/>
    <rect x="352" y="620" width="320" height="56" rx="8"/>

    <!-- 中段屋根 -->
    <path d="M320 560 C390 528, 634 528, 704 560 L676 586 C612 570, 412 570, 348 586 Z"/>
    <rect x="392" y="520" width="240" height="52" rx="8"/>

    <!-- 上段屋根 -->
    <path d="M380 460 C430 438, 594 438, 644 460 L624 480 C586 468, 438 468, 400 480 Z"/>

    <!-- 上段本体（破風と密着：y=426 / height=68） -->
    <rect x="440" y="426" width="144" height="68" rx="8"/>

    <!-- 破風（三角） -->
    <polygon points="470,430 512,396 554,430" />
  </g>
</svg>
