<?xml version="1.0" encoding="UTF-8"?>
<svg xmlns="http://www.w3.org/2000/svg" width="256" height="256" viewBox="0 0 1024 1024">
  <title>続100名城（円形）</title>
  <defs>
    <filter id="shadow" x="-20%" y="-20%" width="140%" height="140%">
      <feDropShadow dx="0" dy="6" stdDeviation="8" flood-color="#000000" flood-opacity="0.22"/>
    </filter>
  </defs>

  <!-- 円形背景 -->
  <circle cx="512" cy="512" r="448" fill="#F59E0B"/>

  <!-- ラベル -->
  <text x="512" y="304" text-anchor="middle"
        font-family="Inter, system-ui, -apple-system, 'Hiragino Sans', 'Hiragino Kaku Gothic ProN', 'Noto Sans JP', 'Yu Gothic UI', 'Segoe UI', Roboto, Helvetica, Arial, sans-serif"
        font-size="230" font-weight="900" fill="#111827">続100</text>

  <!-- 城シルエット（罫線・境目対策済み） -->
  <g fill="#FFFFFF" filter="url(#shadow)">
    <path d="M240 740 L784 740 L744 830 L280 830 Z"/>
    <rect x="300" y="700" width="424" height="28" rx="6"/>
    <path d="M260 660 C340 630, 684 630, 764 660 L730 690 C650 668, 374 668, 294 690 Z"/>
    <rect x="352" y="620" width="320" height="56" rx="8"/>
    <path d="M320 560 C390 528, 634 528, 704 560 L676 586 C612 570, 412 570, 348 586 Z"/>
    <rect x="392" y="520" width="240" height="52" rx="8"/>
    <path d="M380 460 C430 438, 594 438, 644 460 L624 480 C586 468, 438 468, 400 480 Z"/>
    <rect x="440" y="426" width="144" height="68" rx="8"/>
    <polygon points="470,430 512,396 554,430" />
  </g>
</svg>
