<?xml version="1.0" encoding="UTF-8"?> <svg xmlns="http://www.w3.org/2000/svg" width="1024" height="1024" viewBox="0 0 1024 1024"> <defs> <filter id="shadow" x="-20%" y="-20%" width="140%" height="140%"> <feDropShadow dx="0" dy="6" stdDeviation="8" flood-color="#000000" flood-opacity="0.25"/> </filter> </defs> <!-- Rising sun --> <circle cx="720" cy="360" r="120" fill="#EF4444" opacity="0.85"/> <!-- Castle silhouette --> <g fill="#FFFFFF" filter="url(#shadow)"> <path d="M240 740 L784 740 L744 830 L280 830 Z"/> <rect x="300" y="700" width="424" height="28" rx="6"/> <path d="M260 660 C340 630, 684 630, 764 660 L730 690 C650 668, 374 668, 294 690 Z"/> <rect x="352" y="620" width="320" height="56" rx="8"/> <path d="M320 560 C390 528, 634 528, 704 560 L676 586 C612 570, 412 570, 348 586 Z"/> <rect x="392" y="520" width="240" height="52" rx="8"/> <path d="M380 460 C430 438, 594 438, 644 460 L624 480 C586 468, 438 468, 400 480 Z"/> <rect x="440" y="430" width="144" height="56" rx="8"/> <polygon points="470,430 512,396 554,430" /> </g> <!-- Sakura blossoms (stylized petals) --> <g fill="#FFC0CB" opacity="0.85"> <path d="M180 260 Q190 230, 220 240 Q200 200, 240 210 Q230 180, 260 200 Q250 230, 270 240 Q250 250, 230 260 Q210 280, 190 270 Z"/> <path d="M820 760 Q830 730, 860 740 Q840 700, 880 710 Q870 680, 900 700 Q890 730, 910 740 Q890 750, 870 760 Q850 780, 830 770 Z"/> <path d="M300 860 Q310 830, 340 840 Q320 800, 360 810 Q350 780, 380 800 Q370 830, 390 840 Q370 850, 350 860 Q330 880, 310 870 Z"/> </g> </svg>